<?xml version="1.0" encoding="UTF-8" standalone="no"?>
<!-- Generator: Adobe Illustrator 19.0.0, SVG Export Plug-In . SVG Version: 6.00 Build 0)  -->

<svg
   xmlns:dc="http://purl.org/dc/elements/1.1/"
   xmlns:cc="http://creativecommons.org/ns#"
   xmlns:rdf="http://www.w3.org/1999/02/22-rdf-syntax-ns#"
   xmlns:svg="http://www.w3.org/2000/svg"
   xmlns="http://www.w3.org/2000/svg"
   xmlns:sodipodi="http://sodipodi.sourceforge.net/DTD/sodipodi-0.dtd"
   xmlns:inkscape="http://www.inkscape.org/namespaces/inkscape"
   version="1.1"
   id="Layer_1"
   x="0px"
   y="0px"
   viewBox="0 0 1280 480"
   style="enable-background:new 0 0 1280 480;"
   xml:space="preserve"
   sodipodi:docname="Logo-inverted.svg"
   inkscape:version="0.92.2 5c3e80d, 2017-08-06"><metadata
     id="metadata24"><rdf:RDF><cc:Work
         rdf:about=""><dc:format>image/svg+xml</dc:format><dc:type
           rdf:resource="http://purl.org/dc/dcmitype/StillImage" /><dc:title /></cc:Work></rdf:RDF></metadata><defs
     id="defs22" /><sodipodi:namedview
     pagecolor="#ffffff"
     bordercolor="#666666"
     borderopacity="1"
     objecttolerance="10"
     gridtolerance="10"
     guidetolerance="10"
     inkscape:pageopacity="0"
     inkscape:pageshadow="2"
     inkscape:window-width="1179"
     inkscape:window-height="621"
     id="namedview20"
     showgrid="false"
     inkscape:zoom="0.39774756"
     inkscape:cx="687.27106"
     inkscape:cy="237.84582"
     inkscape:window-x="0"
     inkscape:window-y="0"
     inkscape:window-maximized="0"
     inkscape:current-layer="Layer_1" /><style
     type="text/css"
     id="style2">
	.st0{fill:#141414;}
	.st1{fill:#2F98D5;}
	.st2{font-family:'Gotham-Light';}
	.st3{font-size:126.925px;}
</style><path
     style="fill:#2f98d5;fill-opacity:1"
     inkscape:connector-curvature="0"
     d="M 10.5,341.2 V 30 h 107.7 c 95.4,0 164.6,65.1 164.6,154.8 v 0.8 c 0,90.2 -69.2,155.6 -164.6,155.6 H 10.5 Z M 118.1,297 C 187.5,297 236,251.5 236,186.4 v -0.8 C 236,120 187.5,74.2 118.1,74.2 H 56.3 V 297 Z"
     class="st0"
     id="XMLID_33_" /><path
     style="fill:#2f98d5;fill-opacity:1;stroke:none;stroke-opacity:1"
     inkscape:connector-curvature="0"
     d="m 22.7,42.3 h 95.4 c 90.1,0 152.3,61.8 152.3,142.5 v 0.8 c 0,80.7 -62.2,143.3 -152.3,143.3 H 22.7 Z m 95.4,267 c 79.8,0 130.2,-54.5 130.2,-122.8 v -0.8 C 248.3,117.7 197.9,62 118.1,62 H 44 v 247.3 z"
     class="st0"
     id="XMLID_7_" /><path
     style="fill:#2f98d5;fill-opacity:1"
     inkscape:connector-curvature="0"
     d="m 363.8,407.9 c -16.9,0 -29.9,-2.8 -46.3,-10.1 l -10.8,-4.8 16.2,-40.9 11.9,5.7 c 9,4.4 16.2,6.6 30.3,6.6 11.3,0 22.8,-2.9 38.1,-36.6 l -106.5,-220 h 50.8 L 425.6,276 493.5,107.9 h 48.9 L 444.7,341 c -19.4,46.3 -44.4,66.9 -80.9,66.9 z"
     class="st0"
     id="XMLID_30_" /><path
     style="fill:#2f98d5;fill-opacity:1"
     inkscape:connector-curvature="0"
     d="m 322.4,386.7 7,-17.6 c 11.1,5.3 20.1,7.8 35.6,7.8 21.7,0 36,-12.7 51.6,-49.1 L 316.3,120.1 h 23.3 l 86.8,186.7 75.3,-186.7 h 22.1 l -90.5,216.2 c -18.4,43.8 -39.7,59.4 -69.6,59.4 -15.9,0 -27.3,-2.9 -41.3,-9 z"
     class="st0"
     id="XMLID_13_" /><path
     style="fill:#2f98d5;fill-opacity:1"
     inkscape:connector-curvature="0"
     d="M 725.7,341.2 V 204.9 c 0,-37.5 -19.7,-59 -54.1,-59 -34.9,0 -60.2,26.2 -60.2,62.2 V 341.2 H 566.8 V 107.8 h 44.6 v 16.9 c 17,-14.4 38.3,-21.8 63.1,-21.8 57.3,0 95.8,39.5 95.8,98.3 v 140 z"
     class="st0"
     id="XMLID_23_" /><path
     style="fill:#2f98d5;fill-opacity:1"
     inkscape:connector-curvature="0"
     d="m 579.2,120.1 h 20.1 V 159 c 13.9,-24.6 37.3,-43.8 75.3,-43.8 52.8,0 83.5,36 83.5,86 V 329 H 738 V 204.9 c 0,-43 -24.2,-71.2 -66.3,-71.2 -40.9,0 -72.5,31.1 -72.5,74.5 V 329 H 579.1 V 120.1 Z"
     class="st0"
     id="XMLID_15_" /><path
     style="fill:#2f98d5;fill-opacity:1"
     inkscape:connector-curvature="0"
     d="m 1138.9,344.9 c -43,0 -70.8,-27.3 -70.8,-69.6 V 150.8 h -30.3 v -43 h 30.3 V 41.1 h 44.6 v 66.7 h 73.3 v 43 h -73.3 v 122.4 c 0,20.1 8.5,28.3 29.5,28.3 8.5,0 15.4,-1.7 25.7,-6.3 l 17.3,-7.8 v 45.7 l -7.1,3.3 c -12.9,5.9 -24.9,8.5 -39.2,8.5 z"
     class="st0"
     id="XMLID_18_" /><path
     style="fill:#2f98d5;fill-opacity:1"
     inkscape:connector-curvature="0"
     d="M 1080.3,275.3 V 138.5 H 1050 v -18.4 h 30.3 V 53.4 h 20.1 v 66.7 h 73.3 v 18.4 h -73.3 v 134.7 c 0,29.9 17.6,40.5 41.8,40.5 10.2,0 18.8,-2 30.7,-7.4 v 18.8 c -10.6,4.9 -20.9,7.4 -34,7.4 -32.4,0.1 -58.6,-17.5 -58.6,-57.2 z"
     class="st0"
     id="XMLID_24_" /><path
     style="fill:#2f98d5;fill-opacity:1"
     inkscape:connector-curvature="0"
     d="M 1223.6,341.2 V 107.8 h 44.6 v 233.4 z m -2.5,-263.3 v -52 h 49.5 v 52 z"
     class="st0"
     id="XMLID_20_" /><path
     style="fill:#2f98d5;fill-opacity:1"
     inkscape:connector-curvature="0"
     d="m 1233.4,38.2 h 25 v 27.4 h -25 z m 2.5,81.9 h 20.1 v 208.8 h -20.1 z"
     class="st0"
     id="XMLID_26_" /><text
     style="font-size:126.92500305px;font-family:Gotham-Light;fill:#ffffff;fill-opacity:1;"
     class="st1 st2 st3"
     id="XMLID_2_"
     x="460.8945"
     y="451.7514">Technologies</text>
<path
     style="fill:#2f98d5;fill-opacity:1"
     inkscape:connector-curvature="0"
     d="m 958.5,285.6 21.2,40.2 -11.8,5.4 C 952.3,338.3 935.7,342 918.6,342 907,342 895.5,340.3 884.3,336.9 854,327.7 829,307.3 814,279.4 c -15,-27.9 -18.2,-60 -9,-90.4 15,-49.7 61.7,-84.4 113.6,-84.4 11.6,0 23.1,1.7 34.4,5.1 18.2,5.5 35,13.8 48.6,27 13.4,11.4 27.7,38.2 27.7,38.2 l -142.5,75.3 -21.2,-40.3 92,-48.6 c -5.5,-3.5 -11.4,-6.2 -17.8,-8.1 -6.9,-2.1 -14,-3.1 -21.1,-3.1 -32,0 -60.8,21.4 -70.1,52 -11.7,38.6 10.2,79.6 48.9,91.2 6.8,2 14,3.1 21,3.1 10.2,0 20.1,-2.1 29.5,-6.2 z"
     class="st0"
     id="XMLID_32_" /><path
     style="fill:#ffffff;fill-opacity:1"
     inkscape:connector-curvature="0"
     d="m 866.8,104.5 c -0.2,-10.2 -0.8,-29 1.9,-38 6.4,-21.6 27.7,-34.9 50.5,-31.8 21.5,3 38.2,22 38.5,43.9 0.1,4 0.1,13.4 0.1,20.5 9.9,3.5 19.2,8.2 27.7,14 0,-12 0,-30.6 -0.1,-34.6 -0.5,-31.1 -20.7,-58.7 -50.1,-68.4 -29.8,-9.8 -62.3,0.2 -81.2,25.2 -10,13.1 -14.8,27.9 -15,44.3 0,4.4 0,32.7 0,43.6 8.3,-7.5 17.6,-13.8 27.7,-18.7 z"
     class="st1"
     id="XMLID_3_" /><path
     style="fill:#ffffff;fill-opacity:1"
     inkscape:connector-curvature="0"
     d="m 1035.4,202.6 -1.8,-10.3 -41.2,23 c 0.3,2.6 0.5,5.3 0.5,8 0,19.6 -7.7,37.4 -20.2,50.6 l 21.5,42.7 12,-13.1 c 12.1,-13.2 20.8,-28.6 26,-45.8 5.4,-18.1 6.5,-36.6 3.2,-55.1 z"
     class="st1"
     id="XMLID_9_" /></svg>