<?xml version="1.0" encoding="utf-8"?>
<!-- Generator: Adobe Illustrator 19.0.0, SVG Export Plug-In . SVG Version: 6.00 Build 0)  -->
<svg version="1.1" id="Layer_1" xmlns="http://www.w3.org/2000/svg" xmlns:xlink="http://www.w3.org/1999/xlink" x="0px" y="0px"
	 viewBox="0 0 1280 480" style="enable-background:new 0 0 1280 480;" xml:space="preserve">
<style type="text/css">
	.st0{fill:#141414;}
	.st1{fill:#2F98D5;}
	.st2{font-family:'Gotham-Light';}
	.st3{font-size:126.925px;}
</style>
<g id="XMLID_1_">
	<path id="XMLID_33_" class="st0" d="M10.5,341.2V30h107.7c95.4,0,164.6,65.1,164.6,154.8v0.8c0,90.2-69.2,155.6-164.6,155.6H10.5z
		 M118.1,297c69.4,0,117.9-45.5,117.9-110.6v-0.8c0-65.6-48.5-111.4-117.9-111.4H56.3V297H118.1z"/>
	<path id="XMLID_7_" class="st0" d="M22.7,42.3h95.4c90.1,0,152.3,61.8,152.3,142.5v0.8c0,80.7-62.2,143.3-152.3,143.3H22.7V42.3z
		 M118.1,309.3c79.8,0,130.2-54.5,130.2-122.8v-0.8c0-68-50.4-123.7-130.2-123.7H44v247.3H118.1z"/>
	<path id="XMLID_30_" class="st0" d="M363.8,407.9c-16.9,0-29.9-2.8-46.3-10.1l-10.8-4.8l16.2-40.9l11.9,5.7
		c9,4.4,16.2,6.6,30.3,6.6c11.3,0,22.8-2.9,38.1-36.6L296.7,107.8h50.8L425.6,276l67.9-168.1h48.9L444.7,341
		C425.3,387.3,400.3,407.9,363.8,407.9z"/>
	<path id="XMLID_13_" class="st0" d="M322.4,386.7l7-17.6c11.1,5.3,20.1,7.8,35.6,7.8c21.7,0,36-12.7,51.6-49.1L316.3,120.1h23.3
		l86.8,186.7l75.3-186.7h22.1l-90.5,216.2c-18.4,43.8-39.7,59.4-69.6,59.4C347.8,395.7,336.4,392.8,322.4,386.7z"/>
	<path id="XMLID_23_" class="st0" d="M725.7,341.2V204.9c0-37.5-19.7-59-54.1-59c-34.9,0-60.2,26.2-60.2,62.2v133.1h-44.6V107.8
		h44.6v16.9c17-14.4,38.3-21.8,63.1-21.8c57.3,0,95.8,39.5,95.8,98.3v140H725.7z"/>
	<path id="XMLID_15_" class="st0" d="M579.2,120.1h20.1V159c13.9-24.6,37.3-43.8,75.3-43.8c52.8,0,83.5,36,83.5,86v127.8H738V204.9
		c0-43-24.2-71.2-66.3-71.2c-40.9,0-72.5,31.1-72.5,74.5v120.8h-20.1V120.1z"/>
	<path id="XMLID_18_" class="st0" d="M1138.9,344.9c-43,0-70.8-27.3-70.8-69.6V150.8h-30.3v-43h30.3V41.1h44.6v66.7h73.3v43h-73.3
		v122.4c0,20.1,8.5,28.3,29.5,28.3c8.5,0,15.4-1.7,25.7-6.3l17.3-7.8v45.7l-7.1,3.3C1165.2,342.3,1153.2,344.9,1138.9,344.9z"/>
	<path id="XMLID_24_" class="st0" d="M1080.3,275.3V138.5H1050v-18.4h30.3V53.4h20.1v66.7h73.3v18.4h-73.3v134.7
		c0,29.9,17.6,40.5,41.8,40.5c10.2,0,18.8-2,30.7-7.4v18.8c-10.6,4.9-20.9,7.4-34,7.4C1106.5,332.6,1080.3,315,1080.3,275.3z"/>
	<path id="XMLID_20_" class="st0" d="M1223.6,341.2V107.8h44.6v233.4H1223.6z M1221.1,77.9v-52h49.5v52H1221.1z"/>
	<path id="XMLID_26_" class="st0" d="M1233.4,38.2h25v27.4h-25V38.2z M1235.9,120.1h20.1v208.8h-20.1V120.1z"/>
	<text id="XMLID_2_" transform="matrix(1 0 0 1 460.8945 451.7514)" class="st1 st2 st3">Technologies</text>
	<path id="XMLID_32_" class="st0" d="M958.5,285.6l21.2,40.2l-11.8,5.4c-15.6,7.1-32.2,10.8-49.3,10.8c-11.6,0-23.1-1.7-34.3-5.1
		c-30.3-9.2-55.3-29.6-70.3-57.5c-15-27.9-18.2-60-9-90.4c15-49.7,61.7-84.4,113.6-84.4c11.6,0,23.1,1.7,34.4,5.1
		c18.2,5.5,35,13.8,48.6,27c13.4,11.4,27.7,38.2,27.7,38.2l-142.5,75.3l-21.2-40.3l92-48.6c-5.5-3.5-11.4-6.2-17.8-8.1
		c-6.9-2.1-14-3.1-21.1-3.1c-32,0-60.8,21.4-70.1,52c-11.7,38.6,10.2,79.6,48.9,91.2c6.8,2,14,3.1,21,3.1c10.2,0,20.1-2.1,29.5-6.2
		L958.5,285.6z"/>
	<path id="XMLID_3_" class="st1" d="M866.8,104.5c-0.2-10.2-0.8-29,1.9-38c6.4-21.6,27.7-34.9,50.5-31.8c21.5,3,38.2,22,38.5,43.9
		c0.1,4,0.1,13.4,0.1,20.5c9.9,3.5,19.2,8.2,27.7,14c0-12,0-30.6-0.1-34.6c-0.5-31.1-20.7-58.7-50.1-68.4
		c-29.8-9.8-62.3,0.2-81.2,25.2c-10,13.1-14.8,27.9-15,44.3c0,4.4,0,32.7,0,43.6C847.4,115.7,856.7,109.4,866.8,104.5z"/>
	<path id="XMLID_9_" class="st1" d="M1035.4,202.6l-1.8-10.3l-41.2,23c0.3,2.6,0.5,5.3,0.5,8c0,19.6-7.7,37.4-20.2,50.6l21.5,42.7
		l12-13.1c12.1-13.2,20.8-28.6,26-45.8C1037.6,239.6,1038.7,221.1,1035.4,202.6z"/>
</g>
</svg>
